HIERARCHY
ROOT Hips
{
	OFFSET 0.00000 0.00000 0.00000
	CHANNELS 6 Xposition Yposition Zposition Zrotation Yrotation Xrotation 
	JOINT LHipJoint
	{
		OFFSET 0 0 0
		CHANNELS 3 Zrotation Yrotation Xrotation
		JOINT LeftUpLeg
		{
			OFFSET 1.28858 -1.83292 1.03970
			CHANNELS 3 Zrotation Yrotation Xrotation
			JOINT LeftLeg
			{
				OFFSET 2.47846 -6.80952 0.00000
				CHANNELS 3 Zrotation Yrotation Xrotation
				JOINT LeftFoot
				{
					OFFSET 2.75274 -7.56311 0.00000
					CHANNELS 3 Zrotation Yrotation Xrotation
					JOINT LeftToeBase
					{
						OFFSET 0.12848 -0.35301 1.68223
						CHANNELS 3 Zrotation Yrotation Xrotation
						End Site
						{
							OFFSET 0.00000 -0.00000 0.87311
						}
					}
				}
			}
		}
	}
	JOINT RHipJoint
	{
		OFFSET 0 0 0
		CHANNELS 3 Zrotation Yrotation Xrotation
		JOINT RightUpLeg
		{
			OFFSET -1.31183 -1.83292 1.03970
			CHANNELS 3 Zrotation Yrotation Xrotation
			JOINT RightLeg
			{
				OFFSET -2.44740 -6.72417 0.00000
				CHANNELS 3 Zrotation Yrotation Xrotation
				JOINT RightFoot
				{
					OFFSET -2.67343 -7.34519 0.00000
					CHANNELS 3 Zrotation Yrotation Xrotation
					JOINT RightToeBase
					{
						OFFSET -0.16914 -0.46471 1.77626
						CHANNELS 3 Zrotation Yrotation Xrotation
						End Site
						{
							OFFSET -0.00000 -0.00000 0.92777
						}
					}
				}
			}
		}
	}
	JOINT LowerBack
	{
		OFFSET 0 0 0
		CHANNELS 3 Zrotation Yrotation Xrotation
		JOINT Spine
		{
			OFFSET 0.01249 2.14252 0.03842
			CHANNELS 3 Zrotation Yrotation Xrotation
			JOINT Spine1
			{
				OFFSET -0.02957 2.14199 -0.03751
				CHANNELS 3 Zrotation Yrotation Xrotation
				JOINT Neck
				{
					OFFSET 0 0 0
					CHANNELS 3 Zrotation Yrotation Xrotation
					JOINT Neck1
					{
						OFFSET -0.01678 1.65709 -0.05476
						CHANNELS 3 Zrotation Yrotation Xrotation
						JOINT Head
						{
							OFFSET 0.07912 1.58331 -0.11843
							CHANNELS 3 Zrotation Yrotation Xrotation
							End Site
							{
								OFFSET 0.03298 1.73940 -0.04271
							}
						}
					}
				}
				JOINT LeftShoulder
				{
					OFFSET 0 0 0
					CHANNELS 3 Zrotation Yrotation Xrotation
					JOINT LeftArm
					{
						OFFSET 3.39556 1.16496 0.08673
						CHANNELS 3 Zrotation Yrotation Xrotation
						JOINT LeftForeArm
						{
							OFFSET 5.23910 -0.00000 -0.00000
							CHANNELS 3 Zrotation Yrotation Xrotation
							JOINT LeftHand
							{
								OFFSET 3.31467 -0.00000 0.00000
								CHANNELS 3 Zrotation Yrotation Xrotation
								JOINT LeftFingerBase
								{
									OFFSET 0 0 0
									CHANNELS 3 Zrotation Yrotation Xrotation
									JOINT LeftHandIndex1
									{
										OFFSET 0.96590 -0.00000 0.00000
										CHANNELS 3 Zrotation Yrotation Xrotation
										End Site
										{
											OFFSET 0.77873 -0.00000 0.00000
										}
									}
								}
								JOINT LThumb
								{
									OFFSET 0 0 0
									CHANNELS 3 Zrotation Yrotation Xrotation
									End Site
									{
										OFFSET 0.79062 -0.00000 0.79062
									}
								}
							}
						}
					}
				}
				JOINT RightShoulder
				{
					OFFSET 0 0 0
					CHANNELS 3 Zrotation Yrotation Xrotation
					JOINT RightArm
					{
						OFFSET -3.27193 1.31331 0.33940
						CHANNELS 3 Zrotation Yrotation Xrotation
						JOINT RightForeArm
						{
							OFFSET -5.30252 -0.00000 0.00000
							CHANNELS 3 Zrotation Yrotation Xrotation
							JOINT RightHand
							{
								OFFSET -3.67875 -0.00000 0.00000
								CHANNELS 3 Zrotation Yrotation Xrotation
								JOINT RightFingerBase
								{
									OFFSET 0 0 0
									CHANNELS 3 Zrotation Yrotation Xrotation
									JOINT RightHandIndex1
									{
										OFFSET -0.59481 -0.00000 0.00000
										CHANNELS 3 Zrotation Yrotation Xrotation
										End Site
										{
											OFFSET -0.47955 -0.00000 0.00000
										}
									}
								}
								JOINT RThumb
								{
									OFFSET 0 0 0
									CHANNELS 3 Zrotation Yrotation Xrotation
									End Site
									{
										OFFSET -0.48687 -0.00000 0.48687
									}
								}
							}
						}
					}
				}
			}
		}
	}
}
MOTION
Frames: 8
Frame Time: .0083333
5.0121 18.2837 -16.3825 0 0 0 0 0 0 -21 0 0 0 0 0 0 0 0 0 0 0 0 0 0 21 0 0 0 0 0 0 0 0 0 0 0 0 0 0 0 0 0 0 0 0 0 0 -16 0 0 21 0 0 11 0 0 0 -8 0 0 0 0 0 0 0 0 0 0 0 0 0 0 0 0 0 0 0 0 8 0 0 0 0 0 0 0 0 0 0 0 0 0 0 0 0 0
5.0121 18.2837 -16.3825 -4.7988 -8.4268 3.8630 0.0000 0.0000 0.0000 -11.6073 -3.8939 -3.6822 0.0124 0.7187 1.9752 0.1014 4.1838 -8.9870 2.7158 10.2202 29.6926 0.0000 0.0000 0.0000 19.4646 -2.8623 -4.0952 -2.9420 -10.6005 30.9441 -0.3673 -2.1501 -12.4385 -2.1698 -9.2112 26.4581 -1.3105 2.4083 0.1525 -3.9350 3.2877 2.0535 -3.2540 1.6574 2.1838 -0.3841 4.0324 6.2921 -2.4844 5.0918 -13.0442 -1.0113 2.6768 -4.8932 -0.0000 -0.0000 0.0000 -75.5925 -1.5604 30.2998 12.8377 -21.0490 -2.3947 -0.0000 0.0000 -10.3360 13.6341 -15.7791 -3.7736 -7.1250 0.0000 -0.0000 -9.4222 13.9223 6.9752 -0.0000 -0.0000 0.0000 85.7187 -10.6739 21.8977 -18.9003 29.2946 -4.9820 0.0000 0.0000 3.2984 2.2250 -48.5101 -1.6670 7.1250 -0.0000 -0.0000 62.6932 -68.8202 -41.2126
5.0569 18.2992 -16.3251 -4.9442 -9.3501 3.6532 0.0000 0.0000 0.0000 -11.8454 -5.2119 -1.9823 0.0035 0.3805 1.0455 0.1677 5.2752 -11.4411 2.8953 10.5236 30.6893 0.0000 0.0000 0.0000 19.0541 -2.5047 -4.4502 -3.1616 -10.9522 32.1189 -0.2557 -7.4776 -15.0713 -0.0216 -0.9496 2.6101 -1.0357 2.7159 0.0733 -4.0956 3.7102 2.2625 -3.5560 1.8778 2.4938 -0.7172 4.1031 6.2939 -2.0880 5.2011 -13.2357 -0.8460 2.7226 -4.9719 0.0000 0.0000 0.0000 -75.3182 -1.5054 30.6314 13.0388 -21.3440 -2.4674 -0.0000 0.0000 -10.7661 14.0781 -16.1233 -3.9838 -7.1250 0.0000 -0.0000 -9.1276 13.5357 6.8268 0.0000 0.0000 0.0000 85.6668 -10.4025 22.1352 -18.9973 29.4153 -5.0295 0.0000 0.0000 3.2600 2.8267 -48.4724 -2.1170 7.1250 -0.0000 -0.0000 63.0605 -68.6035 -41.2572
5.0929 18.3097 -16.3006 -4.8575 -9.7320 3.6254 0.0000 0.0000 0.0000 -12.2437 -5.9115 -1.2496 0.0009 0.1969 0.5409 0.2088 5.7225 -12.5976 3.0921 10.8427 31.7512 0.0000 0.0000 0.0000 18.4981 -2.4574 -5.3348 -3.4128 -11.3351 33.4185 -0.1544 -7.7113 -13.8087 -0.0480 -1.4132 3.8866 -1.1321 2.8475 0.2701 -4.2940 3.8840 2.2969 -3.7131 1.9652 2.4368 -0.7646 4.1347 6.5345 -1.9813 5.2473 -13.6635 -0.8216 2.7430 -5.1490 -0.0000 0.0000 0.0000 -75.1212 -1.4536 30.7105 13.0934 -21.4239 -2.4873 -0.0000 0.0000 -11.0657 14.8156 -17.3894 -4.5198 -7.1250 0.0000 -0.0000 -8.6572 12.1836 6.7141 -0.0000 0.0000 0.0000 85.6846 -10.2879 22.2835 -19.0829 29.5215 -5.0716 0.0000 0.0000 3.3476 2.8997 -48.2510 -2.1642 7.1250 -0.0000 -0.0000 62.6235 -68.4742 -40.7378
5.0926 18.2998 -16.3325 -5.0506 -9.4373 4.3417 0.0000 0.0000 0.0000 -11.7133 -4.7262 -2.9365 0.0032 0.3665 1.0071 0.1469 5.0766 -10.8498 3.0005 10.6959 31.2610 0.0000 0.0000 0.0000 18.8085 -2.3110 -7.1753 -3.7086 -11.7621 34.8956 -0.1117 -7.5954 -12.9703 -0.1531 -2.5212 6.9486 -1.5452 2.7300 0.3421 -4.2574 3.7179 2.1220 -3.4557 1.8714 2.1769 -0.8272 4.1568 6.4029 -1.9127 5.2808 -13.8375 -0.7923 2.7589 -5.1841 -0.0000 -0.0000 0.0000 -75.0059 -1.7933 30.4090 13.0263 -21.3257 -2.4628 -0.0000 0.0000 -10.7298 14.4598 -16.9066 -4.2887 -7.1250 0.0000 -0.0000 -8.8835 12.7076 6.7958 -0.0000 -0.0000 0.0000 85.5623 -10.1328 22.6157 -19.3123 29.8049 -5.1852 0.0000 0.0000 3.3324 2.9662 -48.2617 -2.2142 7.1250 -0.0000 -0.0000 62.6977 -68.4575 -40.7791
5.1102 18.2993 -16.3340 -5.1396 -9.5243 4.6818 0.0000 0.0000 0.0000 -11.6132 -4.6336 -3.3068 0.0028 0.3444 0.9462 0.1426 5.0678 -10.7559 3.0489 10.7738 31.5207 0.0000 0.0000 0.0000 18.7287 -2.1538 -8.4866 -3.9919 -12.1496 36.2632 -0.0322 -8.2633 -12.3995 -0.1078 -2.1166 5.8279 -1.7708 2.7420 0.4033 -4.3109 3.7307 2.0813 -3.3891 1.8735 2.0905 -0.9442 4.1897 6.4127 -1.7929 5.3277 -14.0770 -0.7438 2.7811 -5.2667 0.0000 -0.0000 0.0000 -74.8476 -1.9558 30.3370 13.0353 -21.3389 -2.4661 -0.0000 0.0000 -10.7312 14.5938 -17.1553 -4.3916 -7.1250 0.0000 -0.0000 -8.7990 12.4428 6.7787 0.0000 -0.0000 0.0000 85.4490 -9.9680 22.9356 -19.4986 30.0336 -5.2781 0.0000 0.0000 3.3434 3.1379 -48.2054 -2.3404 7.1250 -0.0000 -0.0000 62.7036 -68.3742 -40.6831
5.1266 18.2976 -16.3386 -5.2152 -9.5735 5.0265 0.0000 0.0000 0.0000 -11.5183 -4.5234 -3.7273 0.0027 0.3325 0.9136 0.1358 5.0396 -10.5923 3.0821 10.8268 31.6980 0.0000 0.0000 0.0000 18.6486 -2.0149 -9.8180 -4.2848 -12.5300 37.6337 0.0191 -8.4554 -11.6736 -0.1255 -2.2840 6.2911 -2.0180 2.7363 0.4753 -4.3592 3.7188 2.0384 -3.3061 1.8631 1.9929 -1.0326 4.2160 6.4288 -1.7243 5.3617 -14.3243 -0.7153 2.7989 -5.3507 -0.0000 0.0000 0.0000 -74.6899 -2.1333 30.2480 13.0327 -21.3351 -2.4652 -0.0000 0.0000 -10.7298 14.6985 -17.3759 -4.4793 -7.1250 0.0000 -0.0000 -8.7341 12.2089 6.7705 -0.0000 0.0000 0.0000 85.3203 -9.8004 23.2941 -19.6990 30.2780 -5.3788 0.0000 0.0000 3.3599 3.2627 -48.1456 -2.4313 7.1250 -0.0000 -0.0000 62.6677 -68.3047 -40.5690
5.1442 18.2959 -16.3412 -5.2786 -9.6646 5.3072 0.0000 0.0000 0.0000 -11.4654 -4.5128 -3.9872 0.0022 0.3000 0.8243 0.1332 5.0939 -10.5936 3.1021 10.8585 31.8040 0.0000 0.0000 0.0000 18.5355 -1.8868 -11.0572 -4.5809 -12.8957 38.9792 0.0585 -8.5687 -11.0119 -0.1272 -2.2993 6.3335 -2.2363 2.7446 0.5673 -4.4194 3.7251 2.0153 -3.2519 1.8627 1.9081 -1.0933 4.2333 6.4714 -1.6936 5.3809 -14.5897 -0.7029 2.8107 -5.4432 0.0000 0.0000 0.0000 -74.5098 -2.3030 30.1897 13.0359 -21.3398 -2.4663 -0.0000 0.0000 -10.7657 14.7822 -17.5241 -4.5429 -7.1250 0.0000 -0.0000 -8.6820 12.0504 6.7581 0.0000 0.0000 0.0000 85.1982 -9.6272 23.6712 -19.9037 30.5262 -5.4824 0.0000 0.0000 3.3813 3.3475 -48.0796 -2.4920 7.1250 -0.0000 -0.0000 62.5879 -68.2451 -40.4309
